<svg width="2371" height="2371" xmlns="http://www.w3.org/2000/svg" xmlns:xlink="http://www.w3.org/1999/xlink" xml:space="preserve" overflow="hidden"><defs><filter id="fx0" x="-10%" y="-10%" width="120%" height="120%" filterUnits="userSpaceOnUse" primitiveUnits="userSpaceOnUse"><feComponentTransfer color-interpolation-filters="sRGB"><feFuncR type="discrete" tableValues="0 0"/><feFuncG type="discrete" tableValues="0 0"/><feFuncB type="discrete" tableValues="0 0"/><feFuncA type="linear" slope="0.4" intercept="0"/></feComponentTransfer><feGaussianBlur stdDeviation="7.12143 7.11703"/></filter><filter id="fx1" x="-10%" y="-10%" width="120%" height="120%" filterUnits="userSpaceOnUse" primitiveUnits="userSpaceOnUse"><feComponentTransfer color-interpolation-filters="sRGB"><feFuncR type="discrete" tableValues="0 0"/><feFuncG type="discrete" tableValues="0 0"/><feFuncB type="discrete" tableValues="0 0"/><feFuncA type="linear" slope="0.2" intercept="0"/></feComponentTransfer><feGaussianBlur stdDeviation="7.65038 7.63889"/></filter><linearGradient x1="1388" y1="-216.928" x2="3006.74" y2="2586.81" gradientUnits="userSpaceOnUse" spreadMethod="reflect" id="fill2"><stop offset="0" stop-color="#FFF9E1"/><stop offset="0.36" stop-color="#ECBA02"/><stop offset="0.67" stop-color="#ECBA02"/><stop offset="1" stop-color="#8C7206"/></linearGradient><clipPath id="clip3"><rect x="0" y="0" width="193" height="251"/></clipPath><clipPath id="clip4"><rect x="0" y="0" width="333" height="437"/></clipPath></defs><g transform="translate(-1012 1)"><path d="M3382.37 1184.94C3382.37 2058.09 3070.52 2369.94 2197.37 2369.94 1324.21 2369.94 1012.37 2058.09 1012.37 1184.94 1012.37 311.784 1324.21-0.0581076 2197.37-0.0581076 3070.52-0.0581076 3382.37 311.784 3382.37 1184.94Z" fill="url(#fill2)" fill-rule="evenodd"/><g filter="url(#fx0)" transform="matrix(9.01036 0 0 9.01594 1176 68)"><g clip-path="url(#clip3)" transform="translate(-2.84217e-14 8.88178e-16)"><path d="M91.2728 31.4069C86.2864 31.4069 82.2486 35.4447 82.2486 40.4197 82.2486 45.3946 86.2913 49.4324 91.2728 49.4324 96.2543 49.4324 100.297 45.3946 100.297 40.4197 100.297 35.4447 96.2543 31.4069 91.2728 31.4069L91.2728 31.4069ZM91.6756 21.4682C101.667 21.4682 110 28.5439 111.929 37.9519L111.99 38.5392 121.908 36.4103C123.723 36.0206 125.527 36.4047 126.969 37.3364L127.88 38.2117 148.409 33.8069C149.596 33.5528 150.778 33.423 151.949 33.4117 160.125 33.3327 167.503 38.9853 169.284 47.2752L171.467 57.4116 168.159 56.559C163.546 55.6102 158.768 55.1133 153.877 55.1077 136.756 55.1247 121.048 61.2008 108.802 71.2978L108.598 71.4841 69.7701 79.8135C66.1401 80.5928 62.5675 78.2832 61.7866 74.6635L61.6962 74.2342 48.0307 77.1651C44.8692 77.8428 42.8617 80.9486 43.5407 84.1053L68.6851 200.949C69.3641 204.106 72.473 206.11 75.6345 205.432L107.133 198.672 109.305 202.061C113.32 207.952 117.469 213.372 121.529 218.251L121.676 218.42 72.2083 229.037C62.7204 231.076 53.3739 225.044 51.332 215.569L21.9246 78.8987C19.8843 69.423 25.9279 60.0884 35.4158 58.0554L58.4508 53.1143 58.9209 51.9454C59.8531 50.4996 61.3394 49.4155 63.1544 49.0258L71.7216 47.1849 71.4389 46.27C71.161 44.926 71.0196 43.5369 71.0196 42.1081 71.0196 30.7067 80.2757 21.4682 91.6921 21.4682L91.6921 21.4682Z" fill="#8E0000" fill-rule="evenodd"/></g></g><path d="M1949.79 302.549C1904.86 302.549 1868.48 338.954 1868.48 383.808 1868.48 428.662 1904.9 465.065 1949.79 465.065 1994.67 465.065 2031.1 428.662 2031.1 383.808 2031.1 338.954 1994.67 302.549 1949.79 302.549L1949.79 302.549ZM1953.42 212.942C2043.44 212.942 2118.53 276.736 2135.91 361.559L2136.45 366.853 2225.82 347.659C2242.18 344.146 2258.43 347.609 2271.42 356.009L2279.63 363.9 2464.61 324.188C2475.3 321.896 2485.95 320.726 2496.5 320.624 2570.17 319.912 2636.65 370.876 2652.69 445.617L2672.37 537.006 2642.56 529.319C2600.99 520.764 2557.95 516.284 2513.88 516.234 2359.61 516.387 2218.08 571.169 2107.73 662.203L2105.89 663.882 1756.04 738.98C1723.33 746.006 1691.14 725.182 1684.11 692.548L1683.29 688.678 1560.16 715.102C1531.67 721.212 1513.59 749.214 1519.7 777.675L1746.26 1831.13C1752.38 1859.59 1780.39 1877.66 1808.88 1871.55L2092.69 1810.6 2112.26 1841.15C2148.44 1894.26 2185.83 1943.14 2222.4 1987.13L2223.74 1988.65 1778.01 2084.37C1692.52 2102.75 1608.3 2048.37 1589.91 1962.94L1324.94 730.732C1306.55 645.299 1361.01 561.139 1446.5 542.81L1654.05 498.262 1658.29 487.722C1666.69 474.688 1680.08 464.913 1696.43 461.4L1773.62 444.802 1771.08 436.554C1768.57 424.436 1767.3 411.912 1767.3 399.031 1767.3 296.236 1850.7 212.942 1953.57 212.942L1953.57 212.942Z" fill="#8E0000" fill-rule="evenodd"/><g filter="url(#fx1)" transform="matrix(3.99399 0 0 4 1905 551)"><g clip-path="url(#clip4)"><path d="M130.072 78.5381C111.569 78.5381 96.5681 93.5343 96.5681 112.035L96.5681 215.685C96.5681 234.187 111.569 249.181 130.072 249.181L202.918 249.181C221.421 249.181 236.422 234.187 236.422 215.685L236.422 133.223C236.6 113.475 227.398 106.034 221.7 97.8794 212.665 86.858 208.016 79.0094 192.262 78.5381L130.072 78.5381ZM166.495 23.1389C245.556 23.2282 309.621 87.2785 309.71 166.325 309.71 301.191 180.145 406.386 174.624 410.791 169.871 414.588 163.119 414.588 158.366 410.791 152.845 406.386 23.2798 301.191 23.2798 166.325 23.3689 87.2914 87.4335 23.2282 166.495 23.1389L166.495 23.1389Z" fill="#FFFFFF" fill-rule="evenodd"/></g></g><path d="M2375.89 816.539C2301.99 816.539 2242.08 876.523 2242.08 950.526L2242.08 1365.13C2242.08 1439.14 2301.99 1499.11 2375.89 1499.11L2666.84 1499.11C2740.74 1499.11 2800.65 1439.14 2800.65 1365.13L2800.65 1035.28C2801.36 956.285 2764.61 926.521 2741.85 893.904 2705.77 849.818 2687.2 818.424 2624.28 816.539L2375.89 816.539ZM2521.37 594.942C2837.14 595.299 3093.01 851.5 3093.37 1167.69 3093.37 1707.15 2575.88 2127.93 2553.83 2145.55 2534.85 2160.74 2507.88 2160.74 2488.9 2145.55 2466.85 2127.93 1949.37 1707.15 1949.37 1167.69 1949.72 851.552 2205.6 595.299 2521.37 594.942L2521.37 594.942Z" fill="#FFFFFF" fill-rule="evenodd"/><path d="M2377.37 1011.92 2636.37 1011.92" stroke="#8E0000" stroke-width="77.9896" stroke-linecap="round" stroke-miterlimit="8" fill="none" fill-rule="evenodd"/><path d="M2377.37 1151.96 2636.37 1151.96" stroke="#8E0000" stroke-width="77.9896" stroke-linecap="round" stroke-miterlimit="8" fill="none" fill-rule="evenodd"/><path d="M2377.37 1290.96 2549.37 1290.96" stroke="#8E0000" stroke-width="77.9896" stroke-linecap="round" stroke-miterlimit="8" fill="none" fill-rule="evenodd"/></g></svg>